<svg width="1514" height="1338" viewBox="0 0 1514 1338" fill="none" xmlns="http://www.w3.org/2000/svg">
<g clip-path="url(#clip0_2281_5048)">
<path fill-rule="evenodd" clip-rule="evenodd" d="M583.97 724.492C528.333 738.3 573.37 823.024 520.001 846.944C470.985 868.914 439.639 920.356 390.317 947.876C324.918 984.366 263.216 996.099 199.498 1043.94C168.458 1067.24 70.2919 1053.27 67.3462 1092.26C218.581 1068.78 299.387 1135.16 392.488 1147.58C474.648 1158.54 536.765 1154.03 606.276 1127.4C847.598 1034.95 746.577 826.878 745.636 763.578C698.04 754.731 630.014 713.065 583.97 724.492Z" fill="#69DDC7"/>
<path d="M1274.88 890.364C1272.16 897.163 1271.45 902.769 1272.34 907.481C1273.23 912.193 1275.69 916.044 1278.96 919.698C1282.23 923.352 1286.27 926.866 1290.6 930.491C1294.93 934.116 1299.57 937.785 1304.39 941.299C1309.21 944.813 1314.05 947.678 1318.74 949.805C1323.44 951.932 1327.98 953.359 1332.12 953.889C1336.26 954.42 1339.99 954.033 1343.09 952.352C1346.18 950.67 1348.63 947.689 1350.26 943.101C1351.89 938.512 1351.91 934.555 1350.59 931.241C1349.28 927.927 1346.62 925.275 1343.12 922.99C1339.63 920.705 1335.32 918.78 1330.82 916.483C1326.33 914.185 1321.68 911.448 1317.27 907.587C1312.87 903.727 1309.15 898.469 1305.54 893.48C1301.94 888.492 1298.38 883.871 1294.74 881.024C1291.09 878.177 1287.42 877.081 1284.04 878.44C1280.65 879.799 1272.15 897.161 1274.88 890.364Z" fill="#E1D6B9"/>
<path d="M1295.03 876.743C1298.72 879.045 1302.41 882.77 1306.08 887.091C1310.29 892.029 1314.51 897.676 1319.57 902.135C1324.62 906.595 1329.89 909.871 1334.99 912.722C1340.09 915.574 1344.98 918.099 1348.92 921.092C1352.87 924.084 1355.84 927.549 1357.34 931.642C1358.84 935.734 1358.88 940.421 1357.2 945.556C1355.53 950.691 1352.69 954.228 1349.02 956.358C1345.34 958.489 1340.83 959.226 1335.82 958.906C1330.82 958.586 1325.34 957.233 1319.73 955.02C1314.12 952.806 1308.39 949.69 1302.77 945.708C1297.15 941.727 1291.97 937.636 1287.27 933.673C1282.57 929.71 1278.32 925.917 1274.99 921.91C1273.73 920.385 1272.61 918.814 1271.66 917.179C1269.74 913.876 1273.32 906.476 1274.52 910.246C1275.65 913.74 1277.65 916.78 1280.21 919.675C1283.33 923.204 1287.2 926.597 1291.35 930.093C1295.5 933.589 1299.96 937.123 1304.58 940.51C1309.21 943.897 1313.84 946.662 1318.34 948.715C1322.85 950.769 1327.2 952.15 1331.17 952.666C1335.13 953.183 1338.71 952.815 1341.68 951.206C1344.64 949.598 1346.98 946.743 1348.54 942.34C1350.09 937.937 1350.12 934.132 1348.86 930.942C1347.6 927.752 1345.06 925.193 1341.72 922.981C1338.39 920.77 1334.27 918.899 1329.97 916.674C1325.67 914.449 1321.21 911.808 1316.97 908.095C1312.73 904.383 1309.13 899.336 1305.67 894.538C1302.21 889.739 1298.82 885.284 1295.35 882.524C1294.91 882.179 1294.48 881.858 1294.05 881.567C1292.93 880.819 1291.83 880.216 1290.72 879.896C1289.43 879.527 1290.26 873.999 1293.44 875.843C1293.96 876.142 1294.72 877.293 1295.03 876.743Z" fill="#394655"/>
<path d="M1072.07 1143.13C1083.24 1164.34 1079.13 1188.75 1081.22 1206.88C1083.31 1225.01 1091.55 1236.74 1098.07 1245.85C1104.58 1254.96 1110.29 1260.96 1116.13 1262.88C1121.97 1264.81 1127.84 1262.72 1134.25 1255.57C1140.67 1248.43 1143.25 1240.28 1143.15 1230.96C1143.05 1221.64 1140.18 1211.19 1136.41 1198.64C1132.65 1186.08 1128.47 1171.29 1119.83 1155.03C1111.19 1138.78 1099.37 1119.75 1080.21 1101.02C1061.05 1082.28 1037.11 1067.51 1016.2 1055.44C995.295 1043.37 977.313 1033.97 963.219 1027.04C949.125 1020.11 938.585 1015.73 930.962 1013.81C923.34 1011.89 918.594 1012.41 916.91 1015.39C915.226 1018.37 917.749 1023.32 924.647 1029.98C931.545 1036.64 943.017 1045.02 959.181 1055.08C975.344 1065.13 996.582 1076.75 1017.96 1090.95C1039.34 1105.16 1060.91 1121.91 1072.07 1143.13Z" fill="#394655"/>
<path d="M1076.26 1137.21C1087.35 1154.77 1088.01 1174.76 1088.19 1192.48C1088.38 1210.2 1092.53 1223.43 1098.18 1232.9C1103.83 1242.36 1109.41 1248.83 1114.52 1251.72C1119.63 1254.6 1124.55 1253.77 1129.84 1247.94C1135.13 1242.12 1136.66 1234.96 1135.69 1226.49C1134.73 1218.01 1131.31 1208.2 1127.72 1196.13C1124.13 1184.06 1120.5 1169.72 1112.78 1154.59C1105.06 1139.46 1094.03 1122.69 1078.2 1106.52C1062.36 1090.36 1042.9 1077.42 1025.29 1066.83C1007.68 1056.24 991.933 1047.94 979.451 1041.63C966.97 1035.32 957.536 1031.05 950.916 1028.83C944.296 1026.62 940.427 1026.46 939.458 1028.46C938.488 1030.46 941.499 1034.35 948.362 1039.84C955.225 1045.33 966.092 1052.41 980.406 1061.07C994.719 1069.74 1012.65 1079.94 1030.37 1092.38C1048.09 1104.82 1065.17 1119.65 1076.26 1137.21Z" fill="#E1D6B9"/>
<path d="M640.703 897.999C617.731 891.197 602.235 875.589 587.41 866.361C572.585 857.132 558.551 854.318 547.574 852.186C536.597 850.054 528.452 849.302 523.254 850.899C518.057 852.496 515.824 856.358 516.994 863.317C518.165 870.275 522.556 876.037 529.548 881.232C536.54 886.426 546.16 890.979 557.921 896.308C569.682 901.637 583.375 908.036 601.034 913.209C618.693 918.381 640.463 923.653 666.751 925.395C693.039 927.138 719.475 924.46 741.936 921.654C764.397 918.847 782.994 915.887 797.238 913.316C811.482 910.745 821.545 908.376 827.889 905.958C834.234 903.54 836.911 901.072 835.783 898.625C834.655 896.178 829.346 894.551 819.944 893.972C810.541 893.392 796.908 893.944 779.004 895.706C761.1 897.469 738.759 900.681 714.403 902.503C690.046 904.326 663.675 904.801 640.703 897.999Z" fill="#394655"/>
<path d="M642.403 903.244C622.194 898.46 606.906 887.525 593.615 877.65C580.323 867.776 567.812 862.244 557.13 859.518C546.448 856.792 538.038 855.709 532.596 856.432C527.154 857.155 524.594 859.883 525.513 865.582C526.433 871.281 530.763 876.004 537.683 880.326C544.603 884.648 554.108 888.591 565.397 893.73C576.685 898.869 589.684 905.265 605.91 910.227C622.137 915.189 641.724 919.559 663.959 921.377C686.194 923.196 708.368 921.547 727.604 919.421C746.84 917.294 763.172 914.738 775.918 912.561C788.663 910.383 797.927 908.458 803.844 906.665C809.76 904.872 812.375 903.187 811.514 901.618C810.653 900.049 805.821 899.245 797.313 899.308C788.805 899.372 776.525 900.374 760.85 902.071C745.174 903.767 726.019 906.255 705.339 907.391C684.659 908.527 662.611 908.028 642.403 903.244Z" fill="#E1D6B9"/>
<path d="M1041.06 156.943C1044.98 166.262 1052.58 173.738 1061.51 179.087C1070.44 184.436 1080.52 187.774 1090.35 189.333C1100.18 190.893 1109.85 190.675 1119.45 188.237C1129.05 185.798 1140.4 181.862 1148.51 174.977C1156.61 168.092 1159.49 159.507 1161.2 151.615C1162.92 143.723 1164.29 134.813 1169.56 124.074C1174.82 113.336 1179.56 102.444 1179.14 94.5096C1178.72 86.5748 1176.85 79.2955 1173.38 73.0337C1169.91 66.772 1165.17 62.1052 1159.48 58.8339C1153.8 55.5625 1147.16 53.6851 1139.83 53.0594C1132.5 52.4338 1124.48 53.0544 1116.02 54.8905C1107.57 56.7268 1098.68 59.7741 1089.63 64.1967C1080.58 68.6194 1072.21 74.0179 1064.87 80.2832C1057.53 86.5486 1051.23 93.6919 1046.54 101.513C1041.86 109.334 1038.82 117.844 1038.07 126.56C1037.32 135.275 1037.15 147.624 1041.06 156.943Z" fill="#96D6FF"/>
<path d="M1094.12 56.2759C1101.49 53.3382 1108.72 51.1924 1115.7 49.7618C1125.01 47.854 1133.84 47.2267 1141.93 47.9177C1150.02 48.6087 1157.36 50.6136 1163.67 54.1385C1169.98 57.6635 1175.26 62.7002 1179.19 69.4684C1183.13 76.2366 1185.35 84.127 1185.97 92.7401C1186.59 101.353 1183.25 112.358 1177.31 124.049C1171.38 135.74 1169.74 145.546 1167.92 154.101C1166.12 162.627 1160.44 170.45 1150.08 176.975C1148.89 177.723 1146.29 174.556 1147.2 173.727C1155.24 166.539 1157.2 157.987 1159.91 150.887C1161.62 143.212 1162.99 134.541 1168.17 124.083C1173.34 113.625 1178 103.019 1177.63 95.2911C1177.26 87.5632 1175.46 80.4649 1172.1 74.3661C1168.74 68.2668 1164.13 63.7339 1158.59 60.5484C1153.04 57.3628 1146.55 55.5212 1139.39 54.9125C1132.22 54.304 1124.38 54.9097 1116.1 56.6997C1111.96 57.5949 1107.7 58.7954 1103.38 60.3006C1099.06 61.8054 1094.66 63.619 1090.22 65.7709C1081.35 70.0828 1073.17 75.3436 1065.99 81.4516C1058.8 87.5592 1052.63 94.5329 1048.04 102.15C1043.46 109.767 1040.49 118.04 1039.74 126.518C1038.99 134.996 1038.78 146.993 1042.56 156.055C1045.66 163.496 1051.11 169.814 1057.95 174.554C1059.23 175.436 1054.06 180.877 1050.18 178.497C1042.93 174.051 1037.99 166.917 1034.85 159.376C1030.61 149.18 1030.03 136.234 1030.76 126.688C1031.5 117.142 1034.74 107.848 1039.8 99.3738C1044.86 90.8995 1051.68 83.2271 1059.66 76.5418C1067.65 69.8566 1076.79 64.1349 1086.71 59.4856C1089.19 58.3236 1091.66 57.2581 1094.12 56.2759Z" fill="#394655"/>
<path d="M1159.35 105.673C1158.06 103.614 1154.74 102.92 1149.61 104.318C1141.81 106.442 1132.89 115.08 1127.98 121.685C1125.28 125.308 1122.22 128.801 1120.67 133.082C1120.15 134.535 1119.68 135.998 1120.08 138.014C1121.86 137.68 1123.21 135.396 1124.12 133.649C1127.7 126.764 1132.73 120.622 1139.23 116.105C1144.7 112.305 1145.39 109.594 1150.89 107.264C1154.37 105.789 1156.39 106.603 1159.35 105.673Z" fill="#394655"/>
<path d="M1128.91 120.341C1127.4 118.703 1130.26 123.723 1132.15 124.354C1139.26 126.722 1146.08 129.914 1153.09 132.551C1155.37 133.41 1156.02 131.045 1154.1 129.818C1152.14 128.573 1150.11 127.733 1147.98 126.95C1145.99 126.217 1143.84 125.933 1141.91 125.062C1138.21 123.387 1136.2 121.128 1132.6 119.244C1131.37 118.598 1129.72 121.213 1128.92 120.343L1128.91 120.341Z" fill="#394655"/>
<path d="M1350.03 773.033C1332.74 915.359 1302.2 1053.57 1194.3 1147.95C1058.18 1267.02 807.949 1282.75 630.944 1169.78C579.755 1137.11 538.995 1046.35 532.464 987.662C518.815 864.986 569.276 781.905 557.491 668.697C548.11 578.588 502.464 504.021 506.789 396.732C509.691 324.738 527.333 240.971 581.996 196.466C653.609 138.162 737.222 104.776 832.051 107.074C967.099 110.347 1112.74 119.633 1226.01 206.21C1306.85 268.003 1353.19 370.056 1361.36 474.797C1369.76 582.385 1361.07 682.214 1350.03 773.033Z" fill="#394655"/>
<path d="M1316.2 904.578C1287.31 1035.47 1207.73 1157.47 1066.63 1205.76C935.524 1250.63 763.082 1240.1 635.545 1155.05C587.001 1122.67 549.969 1033.04 544.645 977.427C533.44 860.375 580.01 774.598 569.344 666.567C560.441 576.389 517.319 511.041 518.665 404.088C519.545 334.19 535.357 251.318 588.886 207.959C656.699 153.028 734.359 118.155 823.67 118.603C965.186 119.314 1124.75 129.587 1237.41 231.078C1340.42 323.867 1355.09 487.254 1350.32 614.812C1346.38 720.019 1336.07 814.575 1316.2 904.578Z" fill="#96D6FF"/>
<path d="M622.024 170.468C628.636 181.892 630.678 194.501 629.691 206.47C628.704 218.438 624.905 229.688 619.54 239.281C614.174 248.875 607.169 256.899 598.032 263.033C588.895 269.167 577.065 275.584 564.542 276.674C552.02 277.763 541.392 272.752 532.11 266.955C522.829 261.158 512.567 253.658 497.823 248.095C483.078 242.531 468.642 236.617 460.597 228.413C452.552 220.209 446.144 211.216 441.832 201.646C437.52 192.076 435.695 182.811 435.963 174.016C436.231 165.221 438.592 156.899 442.794 149.338C446.996 141.777 453.038 134.978 460.788 129.343C468.539 123.709 477.995 119.242 489.179 116.433C500.364 113.624 512.247 112.741 524.338 113.651C536.429 114.562 548.736 117.263 560.487 121.675C572.238 126.086 583.418 132.215 593.022 139.995C602.625 147.777 615.412 159.043 622.024 170.468Z" fill="#96D6FF"/>
<path d="M477.925 112.956C469.575 116.053 462.255 120.088 455.95 124.834C447.543 131.16 440.961 138.746 436.343 147.138C431.725 155.53 429.062 164.712 428.663 174.392C428.263 184.072 430.122 194.228 434.643 204.694C439.163 215.159 445.943 224.997 454.513 233.923C463.084 242.849 476.657 250.046 492.742 255.644C508.826 261.242 520.122 269.157 530.069 275.272C539.982 281.366 551.719 283.08 565.432 279.719C567.011 279.329 565.67 274.408 564.208 274.476C551.412 275.215 541.396 269.313 532.238 265.11C523.168 259.465 513.146 252.157 498.737 246.746C484.328 241.335 470.22 235.578 462.352 227.588C454.483 219.597 448.203 210.833 443.982 201.506C439.761 192.18 437.987 183.152 438.248 174.572C438.51 165.993 440.809 157.855 444.923 150.469C449.037 143.083 454.944 136.447 462.531 130.933C466.325 128.176 470.556 125.698 475.186 123.569C479.816 121.44 484.862 119.648 490.331 118.263C501.273 115.503 512.878 114.635 524.69 115.512C536.503 116.388 548.538 119.023 560.005 123.325C571.472 127.626 582.366 133.599 591.736 141.189C601.105 148.779 613.583 159.756 620.051 170.889C625.363 180.031 627.81 189.933 627.697 199.672C627.675 201.485 636.696 201.668 637.081 196.434C637.795 186.664 634.227 176.629 628.908 167.543C621.716 155.257 608.968 143.114 598.583 134.703C588.199 126.293 576.102 119.703 563.423 115.011C550.743 110.319 537.502 107.506 524.492 106.659C511.482 105.813 498.677 106.931 486.624 110.18C483.61 110.992 480.709 111.926 477.925 112.956Z" fill="#394655"/>
<path d="M503.143 188.424C504.075 184.774 508.62 182.178 516.847 181.795C529.343 181.213 546.59 189.692 556.968 197.08C562.661 201.134 568.827 204.823 573.146 210.39C574.612 212.28 575.991 214.213 576.363 217.373C573.583 217.727 570.506 215.006 568.337 212.865C559.789 204.429 549.456 197.778 537.74 194.216C527.881 191.22 525.573 187.556 516.361 186.742C510.53 186.226 507.951 188.383 503.143 188.424Z" fill="#394655"/>
<path d="M554.949 195.548C556.396 192.415 554.576 201.167 552.087 202.997C542.746 209.866 534.22 217.81 525.16 225.025C522.209 227.374 520.119 224.203 522.373 221.481C524.662 218.716 527.254 216.512 530.009 214.35C532.591 212.324 535.629 210.882 538.051 208.682C542.708 204.455 544.588 200.174 548.993 195.687C550.503 194.149 554.178 197.215 554.946 195.552L554.949 195.548Z" fill="#394655"/>
<path d="M780.463 1193.94C773.257 1192.63 767.618 1193.06 763.187 1194.9C758.755 1196.73 755.499 1199.97 752.7 1204.1C749.901 1208.22 747.507 1213.21 745.104 1218.57C742.702 1223.94 740.349 1229.68 738.053 1235.45C735.757 1241.23 733.991 1246.8 732.853 1252C731.715 1257.21 731.167 1262.05 731.442 1266.32C731.718 1270.58 732.84 1274.27 735.208 1277.15C737.575 1280.04 741.201 1282.12 746.361 1283.14C751.52 1284.16 755.693 1283.63 758.986 1281.89C762.278 1280.15 764.675 1277.2 766.492 1273.41C768.308 1269.63 769.545 1265.01 770.889 1259.91C772.233 1254.82 773.74 1249.24 776.123 1243.46C778.506 1237.67 782.144 1232.07 785.609 1226.77C789.073 1221.46 792.306 1216.44 794.047 1211.98C795.789 1207.52 796.039 1203.62 793.999 1200.55C791.959 1197.48 787.669 1195.25 780.463 1193.94Z" fill="#E1D6B9"/>
<path d="M798.144 1211.24C796.871 1215.57 794.42 1220.39 791.554 1225.55C788.279 1231.44 784.508 1237.76 781.77 1244.43C779.033 1251.1 777.135 1257.45 775.315 1263.24C773.495 1269.02 771.678 1274.24 769.163 1278.53C766.648 1282.81 763.436 1286.15 759.361 1288.17C755.286 1290.19 750.379 1290.89 744.693 1289.93C739.006 1288.98 734.795 1286.65 731.89 1283.3C728.986 1279.94 727.373 1275.56 726.724 1270.5C726.075 1265.43 726.365 1259.68 727.409 1253.54C728.454 1247.41 730.296 1240.91 732.912 1234.25C735.529 1227.6 738.23 1221.29 740.955 1215.55C743.68 1209.8 746.398 1204.64 749.607 1200.47C750.828 1198.88 752.134 1197.45 753.544 1196.17C756.392 1193.6 764.37 1195.65 760.944 1197.64C757.77 1199.48 756.735 1201.91 754.581 1205.18C751.956 1209.16 750.085 1214.3 747.974 1219.22C745.864 1224.14 741.969 1228.79 739.897 1233.92C737.824 1239.06 736.245 1244.03 735.239 1248.79C734.234 1253.54 733.758 1258.06 734.021 1262.08C734.285 1266.1 735.32 1269.6 737.495 1272.29C739.671 1274.98 742.995 1276.85 747.583 1277.75C752.171 1278.65 755.79 1278.15 758.517 1276.5C761.243 1274.85 761.447 1270.21 762.739 1266.71C764.03 1263.21 766.057 1258.92 767.211 1254.42C768.366 1249.91 770.299 1247.03 773.08 1242.06C775.861 1237.1 780.131 1232.23 784.05 1227.19C787.969 1222.15 791.126 1217.27 792.801 1212.98C793.01 1212.44 793.199 1211.91 793.362 1211.39C793.781 1210.06 794.08 1208.79 794.117 1207.58C794.159 1206.19 799.615 1205.77 798.616 1209.42C798.453 1210.01 798.326 1210.63 798.144 1211.24Z" fill="#394655"/>
<g opacity="0.06">
<path d="M1141.5 637.011C1108.15 637.011 1081.11 612.108 1081.11 581.388C1081.11 550.669 1108.15 525.766 1141.5 525.766C1174.85 525.766 1201.88 550.669 1201.88 581.388C1201.88 612.108 1174.85 637.011 1141.5 637.011Z" fill="black"/>
<path d="M515.008 116.988C497.197 116.799 486.113 119.232 473.018 125.775C459.467 132.545 446.002 147.065 441.944 159.281C435.839 177.659 440.809 199.422 455.44 218.383C464.036 229.524 473.863 236.027 494.735 244.388C503.365 247.845 515.419 253.804 521.522 257.63C536.641 267.108 547.976 271.934 557.944 273.135C564.458 273.921 566.323 274.849 566.323 277.317C566.323 279.715 564.423 280.774 558.548 281.655C554.273 282.297 548.404 282.303 545.504 281.666C540.258 280.514 540.204 280.577 535.669 294.267C525.242 325.745 519.999 363.803 520.046 407.638C520.098 456.903 524.957 485.335 545.814 558.365C560.772 610.743 565.063 629.369 568.892 658.573C574.414 700.697 572.428 730.121 558.385 813.991C545.302 892.129 544.509 899.232 544.442 939.159C544.378 977.562 546.15 992.541 553.925 1019.33C568.572 1069.81 590.849 1111.09 618.231 1138.47C639.758 1160 679.094 1182.21 729.14 1201.09C743.865 1206.64 744.838 1206.79 746.534 1203.76C751.168 1195.48 755.165 1193.6 771.635 1193.55C667.593 1102.76 678.886 972.233 702.985 900.589C722.713 841.943 788.438 757.426 788.438 757.426L728.16 752.095C728.16 752.095 708.634 637.429 692.772 590.988C632.022 413.116 612.554 267.305 704.528 165.543C720.244 148.154 738.415 135.386 757.272 126.017C732.992 131.123 708.045 138.941 686.22 148.414C668.327 156.18 635.078 175.065 635.131 177.429C635.155 178.48 635.958 182.74 636.917 186.899C639.065 196.208 636.7 201.851 630.997 201.039C627.804 200.585 626.969 198.992 626.074 191.663C624.377 177.757 617.465 166.389 601.683 151.544C576.792 128.133 555.16 118.686 523.077 117.224C520.232 117.095 517.552 117.015 515.008 116.988ZM518.722 181.804C523.789 181.977 529.465 182.925 534.55 184.614C545.287 188.18 567.786 202.607 573.052 209.301C581.135 219.576 575.874 220.086 563.896 210.189C559.201 206.311 554.832 203.14 554.187 203.14C553.543 203.14 546.688 208.293 538.953 214.591C531.217 220.889 523.895 226.041 522.683 226.046C517.604 226.065 521.163 220.446 531.046 212.841C543.534 203.234 546.887 198.352 542.152 196.679C540.413 196.065 534.288 193.628 528.54 191.264C520.438 187.931 516.379 187.221 510.469 188.107C502.221 189.344 500.189 187.056 506.529 183.664C509.191 182.239 513.654 181.631 518.722 181.804ZM797.875 1213.79C797.862 1213.83 797.856 1213.86 797.844 1213.9L795.958 1220.05L811.171 1222.79C811.414 1222.83 811.724 1222.87 811.97 1222.92C807.082 1219.93 802.387 1216.88 797.875 1213.79Z" fill="black"/>
<path fill-rule="evenodd" clip-rule="evenodd" d="M767.344 757.793L755.304 797.811C762.323 797.879 781.775 780.546 800.374 779.475C1007.34 767.559 1136.72 778.384 1304.06 764.939C1307.97 764.624 1314.19 764.645 1318.06 765.498C1332.09 768.584 1339.82 804.153 1343.25 802.086C1344.88 764.09 1337 750.609 1327.6 741.045L767.344 757.793Z" fill="black"/>
</g>
<path d="M681.575 410.631C682.353 436.695 688.861 461.847 699.91 485.184C710.959 508.52 726.544 530.048 745.449 548.699C764.354 567.349 786.574 583.12 810.952 594.733C835.33 606.346 861.867 613.794 889.486 615.663C917.106 617.532 943.206 613.619 966.813 604.78C990.42 595.942 1011.53 582.182 1029.11 564.543C1046.69 546.905 1060.73 525.389 1070.17 501.185C1079.61 476.981 1084.45 450.088 1083.65 421.818C1082.86 393.548 1076.52 366.602 1065.75 342.278C1054.99 317.955 1039.82 296.258 1021.34 278.303C1002.85 260.349 981.062 246.137 956.992 236.554C932.923 226.972 906.57 222.01 878.94 222.394C851.309 222.777 825.008 228.441 801.097 238.171C777.187 247.901 755.673 261.704 737.698 278.603C719.724 295.503 705.294 315.504 695.561 337.77C685.829 360.037 680.798 384.566 681.575 410.631Z" fill="#394655"/>
<path d="M695.173 404.677C695.171 429.202 700.495 453.266 710.197 475.877C719.899 498.488 733.986 519.645 751.45 538.079C768.914 556.513 789.754 572.206 812.837 583.741C835.92 595.275 861.236 602.642 887.621 604.503C914.007 606.363 938.959 602.539 961.491 594.037C984.023 585.535 1004.14 572.357 1020.9 555.588C1037.66 538.82 1051.06 518.459 1060.14 495.677C1069.21 472.895 1073.96 447.692 1073.41 421.33C1072.87 394.968 1067.08 369.97 1057.12 347.473C1047.17 324.976 1033.06 304.981 1015.84 288.414C998.614 271.847 978.286 258.704 955.829 249.699C933.372 240.694 908.78 235.816 882.972 235.683C857.163 235.551 832.572 240.151 810.157 248.466C787.743 256.78 767.509 268.817 750.482 283.819C733.455 298.822 719.637 316.796 710.068 337.128C700.499 357.46 695.175 380.151 695.173 404.677Z" fill="white"/>
<path d="M839.26 461.411C809.232 461.411 784.889 437.072 784.889 407.048C784.889 377.025 809.232 352.686 839.26 352.686C869.288 352.686 893.63 377.025 893.63 407.048C893.63 437.072 869.288 461.411 839.26 461.411Z" fill="#394455"/>
<path d="M863.325 408.831C848.557 408.831 836.586 396.861 836.586 382.095C836.586 367.33 848.557 355.36 863.325 355.36C878.093 355.36 890.065 367.33 890.065 382.095C890.065 396.861 878.093 408.831 863.325 408.831Z" fill="white"/>
<path d="M1193.79 309.779C1193.27 330.409 1197.47 352.699 1203.76 375.736C1210.04 398.773 1218.2 422.589 1226.46 445.353C1234.71 468.117 1243.08 489.722 1252.16 508.185C1261.24 526.648 1271.17 541.968 1283.42 552.958C1295.68 563.947 1309.23 569.645 1323.85 570.884C1338.46 572.123 1356.77 574.647 1372.43 567.529C1388.09 560.412 1403.53 549.326 1417.29 534.628C1431.05 519.93 1443.12 501.61 1451.97 480.078C1460.83 458.546 1465.61 435.851 1466.27 413.315C1466.92 390.778 1463.45 368.409 1456.06 347.465C1448.67 326.521 1431.92 300.694 1417.25 283.721C1402.59 266.748 1384.56 252.312 1364.07 241.49C1343.59 230.669 1322.63 224.479 1302.79 222.497C1282.95 220.515 1264.21 222.751 1248.1 228.86C1231.98 234.97 1218.48 244.95 1209.04 258.502C1199.59 272.054 1194.3 289.149 1193.79 309.779Z" fill="#394655"/>
<path d="M1202.83 312.213C1201.76 331.363 1204.72 352.306 1209.92 374.124C1215.13 395.941 1222.51 418.639 1230.69 440.306C1238.88 461.972 1247.81 482.497 1257.38 499.971C1266.95 517.445 1277.23 531.878 1289.19 542.205C1301.16 552.532 1313.85 557.855 1327.26 559C1340.67 560.144 1357.69 562.858 1371.72 556.164C1385.76 549.47 1399.55 539.07 1411.81 525.312C1424.06 511.553 1434.78 494.427 1442.56 474.334C1450.34 454.241 1454.42 433.094 1454.75 412.11C1455.08 391.126 1451.66 370.312 1444.68 350.808C1437.7 331.305 1421.64 306.687 1408.02 290.835C1394.41 274.983 1377.75 261.465 1358.91 251.275C1340.06 241.086 1320.86 235.182 1302.76 233.156C1284.67 231.13 1267.67 232.986 1253.08 238.403C1238.49 243.82 1226.31 252.789 1217.65 265.105C1208.99 277.422 1203.91 293.063 1202.83 312.213Z" fill="white"/>
<path d="M1403.28 403.522C1381.31 396.497 1369.2 372.994 1376.23 351.026C1383.25 329.059 1406.76 316.946 1428.73 323.971C1450.7 330.996 1462.81 354.499 1455.78 376.466C1448.76 398.434 1425.25 410.547 1403.28 403.522Z" fill="#394455"/>
<path d="M1426.58 367.574C1415.77 364.119 1409.82 352.56 1413.27 341.756C1416.73 330.953 1428.29 324.995 1439.09 328.45C1449.9 331.905 1455.86 343.464 1452.4 354.268C1448.94 365.071 1437.38 371.029 1426.58 367.574Z" fill="white"/>
<path d="M1168.58 568.1L1151.45 568.322L1141.47 568.101C1138.28 568.031 1135.45 569.542 1133.38 571.769C1131.31 573.996 1130.3 577.081 1129.82 580.447L1127.09 599.503L1123.31 618.626C1122.62 622.07 1123.53 625.107 1125.2 627.316C1126.87 629.526 1129.44 630.785 1132.46 630.857L1142.53 631.096L1162.45 630.632C1166.27 630.543 1169.82 629.059 1172.42 626.778C1175.03 624.498 1176.57 621.398 1176.88 618.013L1178.62 599.037L1180.03 580.091C1180.28 576.719 1178.78 573.698 1176.66 571.535C1174.54 569.371 1171.66 568.081 1168.58 568.1Z" fill="#2E3436"/>
<path d="M1165.45 573.868L1151.47 574.056L1144.81 573.783C1142.29 573.679 1139.95 574.955 1138.19 576.778C1136.44 578.601 1135.41 581.129 1134.94 583.887L1132.24 599.467L1128.86 615.087C1128.26 617.876 1128.87 620.387 1130.18 622.191C1131.49 623.996 1133.59 624.972 1136.09 625.072L1142.93 625.344L1158.76 625.001C1161.76 624.936 1164.61 623.731 1166.76 621.869C1168.91 620.008 1170.28 617.473 1170.63 614.702L1172.59 599.185L1174.29 583.686C1174.59 580.926 1173.52 578.449 1171.89 576.677C1170.26 574.906 1167.97 573.834 1165.45 573.868Z" fill="white"/>
<path d="M1087.51 551.942C1087.98 558.051 1091.75 563.577 1097.09 568.553C1102.44 573.53 1109.83 577.94 1118.39 581.554C1126.95 585.167 1136.6 587.945 1146.38 589.43C1156.15 590.915 1166.06 591.08 1175.79 589.906C1185.53 588.732 1194.25 586.396 1201.82 583.509C1209.39 580.623 1215.75 577.198 1220.76 573.4C1225.76 569.601 1229.47 565.393 1231.81 560.696C1234.14 556 1235.11 550.801 1234.27 545.198C1233.42 539.596 1230.79 534.132 1226.74 529.113C1222.68 524.093 1217.23 519.523 1210.82 515.721C1204.42 511.918 1197.07 508.884 1188.96 506.895C1180.85 504.907 1171.97 503.961 1162.25 504.282C1152.53 504.603 1142.83 506.15 1133.63 508.706C1124.42 511.263 1115.74 514.847 1108.51 519.223C1101.27 523.6 1095.33 528.643 1091.86 534.335C1088.31 540.166 1087.1 546.737 1087.51 551.942Z" fill="#394655"/>
<path d="M1108.08 550.571C1108.91 555.423 1111.75 559.955 1116.11 564.015C1120.47 568.075 1126.35 571.672 1133.02 574.542C1139.7 577.412 1147.14 579.534 1154.73 580.648C1162.32 581.763 1170.07 581.866 1177.68 580.937C1185.29 580.007 1192.09 578.167 1198 575.815C1203.9 573.462 1208.88 570.601 1212.78 567.41C1216.69 564.218 1219.53 560.681 1221.21 556.83C1222.88 552.979 1223.4 548.801 1222.52 544.377C1221.65 539.953 1219.46 535.703 1216.23 531.825C1212.99 527.947 1208.72 524.447 1203.69 521.55C1198.67 518.652 1192.88 516.36 1186.51 514.877C1180.13 513.395 1173.16 512.722 1165.62 513.034C1158.07 513.347 1150.63 514.611 1143.59 516.642C1136.56 518.673 1129.95 521.476 1124.37 524.876C1118.79 528.275 1114.26 532.273 1111.37 536.635C1108.49 540.998 1107.25 545.718 1108.08 550.571Z" fill="#E1D0CB"/>
<path d="M1135.08 520.958C1136.3 524.435 1138.94 527.522 1142.6 530.129C1146.26 532.735 1150.92 534.864 1155.98 536.497C1161.04 538.129 1166.47 539.271 1171.78 539.878C1177.1 540.486 1182.3 540.557 1187.17 540.018C1192.04 539.479 1196.15 538.384 1199.63 536.86C1203.11 535.335 1205.96 533.381 1208.2 531.082C1210.44 528.782 1212.09 526.132 1213.04 523.197C1213.99 520.261 1214.25 517.037 1213.61 513.63C1212.96 510.222 1211.45 506.956 1209.17 504.004C1206.89 501.053 1203.84 498.418 1200.15 496.28C1196.46 494.142 1192.13 492.503 1187.33 491.53C1182.52 490.556 1177.23 490.249 1171.66 490.747C1166.09 491.245 1160.76 492.499 1155.94 494.323C1151.12 496.148 1146.81 498.543 1143.32 501.321C1139.83 504.099 1137.16 507.261 1135.67 510.607C1134.18 513.952 1133.86 517.48 1135.08 520.958Z" fill="#394655"/>
<path d="M814.981 865.057C809.914 870.344 807.157 875.28 806.244 879.99C805.332 884.699 806.238 889.201 808.134 893.811C810.031 898.42 812.874 903.171 816.022 908.132C819.17 913.094 822.66 918.223 826.212 923.323C829.763 928.424 833.432 932.968 837.149 936.79C840.865 940.611 844.601 943.739 848.311 945.861C852.021 947.984 855.717 949.083 859.429 948.7C863.141 948.316 866.877 946.44 870.576 942.701C874.275 938.962 876.131 935.188 876.495 931.481C876.86 927.774 875.723 924.15 873.568 920.547C871.414 916.945 868.245 913.366 864.734 909.434C861.222 905.501 857.406 901.169 853.892 895.99C850.379 890.81 847.718 884.69 845.202 878.873C842.686 873.055 840.283 867.591 837.521 863.677C834.759 859.763 831.649 857.406 827.962 857.414C824.276 857.422 820.047 859.769 814.981 865.057Z" fill="#E1D6B9"/>
<path d="M839.168 859.855C842.073 863.302 844.743 868.007 847.464 873.242C850.574 879.224 853.763 885.853 857.819 891.817C861.875 897.781 866.122 902.865 869.945 907.574C873.769 912.284 877.12 916.679 879.306 921.139C881.492 925.6 882.507 930.122 881.944 934.634C881.38 939.146 879.257 943.624 875.323 947.84C871.39 952.055 867.123 954.283 862.724 954.855C858.324 955.427 853.78 954.356 849.195 952.102C844.61 949.848 839.97 946.433 835.431 942.179C830.891 937.925 826.482 932.801 822.375 926.949C818.267 921.096 814.49 915.361 811.205 909.921C807.92 904.481 805.11 899.365 803.401 894.389C802.751 892.496 802.275 890.614 801.99 888.735C801.414 884.941 807.53 879.421 807.297 883.375C807.082 887.038 807.907 890.612 809.404 894.25C811.228 898.683 813.963 903.252 816.991 908.025C820.019 912.797 823.376 917.728 826.792 922.634C830.208 927.541 833.736 931.912 837.31 935.587C840.884 939.263 844.478 942.271 848.046 944.313C851.614 946.354 855.171 947.411 858.741 947.042C862.311 946.673 865.903 944.87 869.461 941.274C873.019 937.678 874.805 934.045 875.155 930.48C875.505 926.915 874.413 923.43 872.341 919.965C870.269 916.5 867.22 913.058 863.843 909.275C860.465 905.492 856.795 901.328 853.416 896.346C850.036 891.364 847.476 885.478 845.056 879.882C842.636 874.287 840.325 869.034 837.668 865.269C837.336 864.799 836.999 864.349 836.656 863.927C835.775 862.842 834.881 861.892 833.893 861.195C832.754 860.391 835.416 855.611 837.908 858.457C838.313 858.919 838.753 859.363 839.168 859.855Z" fill="#394655"/>
<path fill-rule="evenodd" clip-rule="evenodd" d="M558.103 713.837C533.635 771.276 516.959 792.022 476.68 834.419C445.742 866.985 399.079 900.216 358.84 940.961C322.387 977.872 288.575 997.448 186.099 1027.05C153.891 1036.35 67.6677 1044.66 47.6523 1127.37C172.37 1044.29 376.677 1064.54 498.328 994.017C600.372 934.858 738.844 769.55 841.378 756.36C649.2 754.565 592.303 742.3 558.103 713.837Z" fill="#9BF0E1"/>
<path fill-rule="evenodd" clip-rule="evenodd" d="M1157.01 746.334L1355.44 732.616C1355.44 732.616 1361.61 735.427 1362.67 738.303C1382.48 792.038 1328.45 901.93 1328.45 901.93C1328.45 893.939 1364.85 783.75 1312.54 758.145C1268.31 736.492 1209.9 752.584 1157.01 746.334Z" fill="#69DDC7"/>
<path fill-rule="evenodd" clip-rule="evenodd" d="M556.163 718.294C532.739 772.309 515.875 793.16 476.679 834.418C445.741 866.983 399.08 900.216 358.841 940.96C322.389 977.871 288.576 997.449 186.1 1027.05C157.505 1035.31 86.3707 1042.83 56.7568 1102.29C64.104 1092.91 76.1408 1089.17 83.3348 1078.89C95.4574 1061.56 246.937 1047.65 286.875 1022.23C313.159 1005.5 374.593 974.633 405.449 953.919C436.305 933.204 540.388 846.827 566.78 841.971C650.138 826.634 717.535 756.029 717.535 756.029C717.535 756.029 702.019 752.422 697.888 751.464C626.703 746.155 591.448 736.452 567.977 721.126C563.191 719.987 557.793 718.71 556.163 718.294Z" fill="#69DDC7"/>
<path fill-rule="evenodd" clip-rule="evenodd" d="M558.796 701.423C572.052 704.743 579.175 715.514 592.147 719.81C632.039 733.022 668.053 741.701 709.967 744.742C761.572 748.486 817.82 748.78 869.553 747.858C968.081 746.102 1067.23 742.684 1165.66 737.886C1219.32 735.27 1274.82 731.729 1328.36 727.29C1338.77 726.427 1349.81 711.003 1359.53 714.824C1365.97 717.357 1364.94 723.698 1366.63 730.406C1373.2 743.668 1367.02 748.275 1351.43 750.975C1299.14 759.184 1245.97 760.544 1193.09 762.817C1063.95 768.367 934.594 768.508 805.344 767.18C759.609 766.71 713.572 768.586 668.2 762.817C632.493 758.277 595.834 753.535 562.848 739.132C551.756 734.289 541.346 731.794 538.714 719.982C537.887 716.268 541.926 714.126 543.776 711.108C545.321 708.587 544.349 705.029 547.108 703.449C550.714 701.383 554.765 700.414 558.796 701.423Z" fill="#9BF0E1"/>
<path fill-rule="evenodd" clip-rule="evenodd" d="M545.399 705.536C544.732 707.253 544.816 709.41 543.775 711.109C541.926 714.127 537.889 716.266 538.716 719.98C541.348 731.793 551.758 734.288 562.85 739.131C595.836 753.533 632.495 758.275 668.201 762.815C713.574 768.584 759.61 766.71 805.345 767.18C934.595 768.508 1063.95 768.365 1193.09 762.815C1245.97 760.542 1299.14 759.185 1351.43 750.975C1367.02 748.276 1373.2 743.669 1366.64 730.406C1366.49 729.814 1366.38 729.231 1366.26 728.647C1367.57 741.151 1348.33 741.834 1334.32 744.573C1243.84 762.257 1150.13 754.103 1057.94 755.587C942.608 757.444 806.858 773.122 693.291 752.945C645.44 744.443 575.202 725.588 545.399 705.536Z" fill="#69DDC7"/>
<circle cx="1095.5" cy="956.5" r="139.5" fill="#394655"/>
<g clip-path="url(#clip1_2281_5048)">
<path d="M1128.42 990.044C1119.69 998.407 1107.83 1003.01 1095.02 1003.01C1085.07 1003.01 1075.19 1000.21 1066.43 994.896L1020.83 967.238V978.239L1069.26 1007.62C1077.4 1012.55 1086.35 1014.94 1095.02 1014.94C1106.14 1014.94 1116.79 1011.01 1124.64 1003.49C1130.39 997.986 1133.56 991.391 1133.42 984.99V984.193C1131.95 986.304 1130.27 988.264 1128.42 990.044ZM1128.42 972.668C1119.69 981.03 1107.83 985.636 1095.02 985.636C1085.07 985.636 1075.19 982.83 1066.43 977.52L1020.83 949.862V960.862L1069.26 990.242C1077.4 995.173 1086.35 997.568 1095.02 997.568C1106.14 997.568 1116.79 993.645 1124.64 986.118C1130.39 980.616 1133.56 974.021 1133.42 967.621V966.808C1131.95 968.923 1130.28 970.887 1128.42 972.668ZM1128.42 1007.43C1119.69 1015.79 1107.83 1020.4 1095.02 1020.4C1085.07 1020.4 1075.19 1017.59 1066.43 1012.28L1020.83 984.616V995.617L1069.26 1025C1077.4 1029.93 1086.35 1032.32 1095.02 1032.32C1106.14 1032.32 1116.79 1028.39 1124.64 1020.86C1130.39 1015.36 1133.56 1008.77 1133.42 1002.37V1001.57C1131.95 1003.68 1130.27 1005.64 1128.42 1007.42V1007.43ZM1128.42 1024.81C1119.69 1033.17 1107.83 1037.77 1095.02 1037.77C1085.07 1037.77 1075.19 1034.97 1066.43 1029.66L1020.83 1001.99V1012.99L1069.26 1042.37C1077.4 1047.31 1086.35 1049.69 1095.02 1049.69C1106.14 1049.69 1116.79 1045.77 1124.64 1038.24C1130.39 1032.74 1133.56 1026.14 1133.42 1019.75V1018.95C1131.95 1021.06 1130.27 1023.02 1128.42 1024.8V1024.81ZM1166.64 948.454C1166.34 948.76 1166.06 949.081 1165.74 949.386C1162.78 952.169 1159.44 954.522 1155.82 956.375C1150.55 959.041 1144.79 960.586 1138.9 960.912H1138.87V972.8H1138.89C1147.22 972.267 1155.43 969.085 1161.97 962.828C1162.32 962.485 1162.64 962.133 1162.98 961.787C1164.26 960.482 1165.45 959.082 1166.52 957.6C1167.61 956.095 1168.55 954.486 1169.32 952.796C1170.39 950.485 1171.04 948.004 1171.25 945.466C1171.29 944.915 1171.34 944.363 1171.33 943.814V942.837C1171 943.314 1170.68 943.795 1170.32 944.27C1169.19 945.742 1167.96 947.139 1166.64 948.454ZM1166.66 931.094C1166.35 931.401 1166.06 931.707 1165.74 932.013C1162.77 934.788 1159.43 937.141 1155.82 939.005C1152.13 940.865 1148.19 942.174 1144.12 942.89C1142.03 943.274 1139.92 943.507 1137.8 943.587C1138.03 944.307 1138.21 945.037 1138.36 945.772C1138.73 947.531 1138.9 949.326 1138.87 951.123V955.426H1138.89C1142.77 955.189 1146.58 954.355 1150.2 952.953C1154.57 951.24 1158.57 948.691 1161.96 945.449C1162.32 945.106 1162.63 944.755 1162.97 944.408C1164.26 943.105 1165.44 941.708 1166.52 940.227C1167.61 938.723 1168.55 937.114 1169.32 935.425C1170.39 933.114 1171.04 930.633 1171.25 928.096C1171.29 927.545 1171.34 926.993 1171.33 926.442V925.523C1171.01 925.983 1170.68 926.442 1170.33 926.902C1169.2 928.376 1167.97 929.776 1166.66 931.094ZM1166.64 965.831C1166.34 966.137 1166.06 966.457 1165.74 966.764C1158.52 973.679 1149.07 977.719 1138.9 978.29H1138.88V990.178H1138.89C1147.21 989.645 1155.43 986.467 1161.96 980.206C1165.31 977.002 1167.75 973.621 1169.32 970.18C1170.38 967.869 1171.04 965.388 1171.24 962.851C1171.28 962.298 1171.33 961.747 1171.33 961.197V960.219C1171 960.698 1170.68 961.179 1170.32 961.652C1169.18 963.122 1167.95 964.518 1166.64 965.831ZM1138.9 995.668V1007.56C1147.22 1007.02 1155.43 1003.85 1161.97 997.583C1168.2 991.611 1171.4 985.052 1171.33 978.575V977.595C1169.69 979.961 1167.82 982.155 1165.74 984.143C1158.52 991.055 1149.07 995.096 1138.9 995.668ZM1155.38 886.585L1109.38 858.676L1055.75 910.042L1020.83 943.484L1069.26 972.865C1077.4 977.795 1086.35 980.183 1095.02 980.183C1106.14 980.183 1116.79 976.259 1124.64 968.733C1133.19 960.548 1136.02 949.953 1130.75 941.152C1129.89 939.723 1128.88 938.396 1127.72 937.198C1130.54 937.828 1133.43 938.148 1136.32 938.152H1136.39C1141.11 938.159 1145.8 937.284 1150.2 935.57C1154.57 933.858 1158.57 931.309 1161.97 928.067C1162.32 927.729 1162.66 927.386 1162.99 927.043C1164.28 925.739 1165.46 924.342 1166.53 922.862C1167.62 921.358 1168.55 919.751 1169.33 918.063C1170.4 915.761 1171.05 913.288 1171.27 910.758C1171.93 902.114 1166.83 893.519 1155.38 886.585ZM1111.11 959.358C1102.5 967.609 1088.64 968.825 1077.36 961.989L1043.85 941.658L1073.93 912.841L1108 933.519C1120.28 940.961 1119.61 951.224 1111.11 959.358H1111.11ZM1147.95 919.352C1139.71 927.249 1126.38 929.545 1115.1 922.707L1083.59 903.589L1112.31 876.054L1143.25 894.826C1154.82 901.837 1156.32 911.339 1147.96 919.352H1147.95Z" fill="url(#paint0_linear_2281_5048)"/>
</g>
</g>
<defs>
<linearGradient id="paint0_linear_2281_5048" x1="1080.92" y1="1047.94" x2="1114.13" y2="859.514" gradientUnits="userSpaceOnUse">
<stop offset="0.07" stop-color="#36BAA2"/>
<stop offset="0.34" stop-color="#61DDC8"/>
<stop offset="0.53" stop-color="#7DF3E1"/>
</linearGradient>
<clipPath id="clip0_2281_5048">
<rect width="1514" height="1338" fill="white"/>
</clipPath>
<clipPath id="clip1_2281_5048">
<rect x="1020.83" y="858.676" width="150.498" height="191.017" fill="white"/>
</clipPath>
</defs>
</svg>
